<?xml version="1.0" standalone="no"?>
<!DOCTYPE svg PUBLIC "-//W3C//DTD SVG 20010904//EN"
 "http://www.w3.org/TR/2001/REC-SVG-20010904/DTD/svg10.dtd">
<svg version="1.0" xmlns="http://www.w3.org/2000/svg"
 width="640.000000pt" height="1280.000000pt" viewBox="0 0 640.000000 1280.000000"
 preserveAspectRatio="xMidYMid meet">
<metadata>
Created by potrace 1.15, written by Peter Selinger 2001-2017
</metadata>
<g transform="translate(0.000000,1280.000000) scale(0.100000,-0.100000)"
fill="#000000" stroke="none">
<path d="M2110 12787 c0 -7 -2 -484 -3 -1062 -5 -1626 -6 -1775 -10 -1775 -3
0 -40 9 -83 20 -135 35 -364 37 -519 5 l-31 -7 -17 74 c-9 40 -18 84 -20 98
-2 16 -8 24 -17 22 -79 -19 -284 -72 -287 -76 -2 -2 3 -19 12 -37 8 -19 40
-133 69 -254 30 -121 111 -444 181 -718 69 -274 123 -502 120 -507 -3 -5 -1
-20 6 -32 7 -12 20 -54 30 -93 101 -406 144 -577 169 -670 16 -60 59 -229 95
-375 36 -146 68 -272 71 -281 3 -13 -6 -16 -48 -17 -76 -2 -439 -111 -373
-111 27 -1 363 37 397 45 23 4 29 0 43 -26 9 -18 14 -34 11 -38 -3 -3 -35 -17
-70 -32 -92 -39 -217 -124 -326 -222 -97 -87 -147 -138 -120 -123 8 5 80 52
160 105 80 53 177 114 215 135 39 21 89 51 112 67 l42 28 12 -42 c9 -33 9 -50
-1 -73 -18 -42 -79 -247 -80 -265 0 -13 -22 -15 -149 -12 l-150 3 -3 -26 c-2
-21 -14 -30 -62 -50 -55 -22 -123 -65 -228 -144 -26 -19 -46 -36 -45 -37 1 -2
57 24 124 56 82 40 137 60 168 62 l45 3 0 -434 c0 -238 -2 -437 -5 -441 -2 -4
-5 -215 -5 -468 -1 -254 -5 -462 -8 -462 -4 0 -25 5 -48 10 -49 11 -365 42
-371 36 -5 -4 -10 -3 227 -52 102 -21 187 -39 189 -40 2 -2 1 -14 -3 -27 -6
-24 -8 -25 -93 -22 -74 3 -80 2 -38 -5 38 -6 23 -8 -60 -5 -100 3 -104 2 -50
-6 33 -6 102 -8 153 -5 91 4 92 4 92 -19 0 -18 -13 -30 -55 -54 -67 -38 -73
-50 -7 -15 l47 25 3 -27 c3 -21 -8 -38 -52 -83 -31 -31 -56 -61 -56 -67 0 -6
-22 -60 -49 -120 -27 -60 -48 -111 -46 -112 2 -2 48 35 102 82 54 47 102 86
107 86 7 0 1 -504 -8 -676 -1 -14 -43 -61 -113 -128 -110 -105 -126 -127 -241
-330 -3 -6 41 28 97 73 82 66 105 81 113 70 8 -11 9 -10 5 3 -3 9 0 22 8 28 7
6 32 42 55 81 37 63 60 90 47 56 -3 -8 -1 -20 5 -28 7 -10 8 -4 5 22 -3 20 -2
42 3 49 13 21 23 -213 16 -365 -3 -77 -6 -275 -6 -439 l-1 -299 -84 -79 c-94
-88 -163 -176 -205 -258 -28 -56 -73 -190 -66 -197 2 -2 23 27 46 64 51 81
223 311 274 368 l37 40 -5 -350 c-3 -192 -8 -576 -11 -853 -3 -276 -8 -508
-11 -515 -4 -11 32 -15 177 -20 99 -4 185 -4 190 -1 6 3 7 192 3 493 -5 361
-4 492 4 508 8 14 9 24 2 28 -6 4 -10 118 -10 312 l0 306 49 -75 c26 -41 72
-94 101 -119 l52 -44 -6 -855 c-4 -470 -9 -878 -12 -906 l-5 -52 210 -7 c217
-8 250 -3 237 32 -3 7 -8 473 -11 1036 -5 725 -3 1031 5 1051 7 20 7 32 0 41
-7 8 -9 84 -8 211 l3 199 55 12 55 11 -57 1 -58 1 0 433 1 432 52 -146 c39
-108 71 -175 123 -260 39 -63 74 -120 79 -127 4 -8 7 -66 6 -130 0 -64 -3
-655 -6 -1312 -4 -657 -7 -1204 -8 -1215 -2 -19 5 -20 121 -23 l123 -3 -6
-107 c-4 -59 -11 -122 -17 -140 -6 -21 -7 -37 -1 -43 10 -10 422 -44 430 -35
2 2 6 42 7 88 7 219 52 858 60 858 5 0 6 -45 3 -108 -4 -59 -7 -260 -8 -447
l-2 -340 209 0 209 0 -3 62 c-4 73 -12 69 106 47 46 -8 86 -13 89 -11 3 3 6
27 8 54 5 59 100 893 121 1058 8 66 16 143 18 170 9 173 17 208 59 279 77 130
69 145 101 -183 15 -160 32 -334 36 -388 5 -54 30 -306 55 -561 25 -255 43
-467 40 -472 -11 -18 18 -19 161 -5 225 23 216 21 210 53 -15 67 -107 940
-102 964 3 15 1 28 -4 30 -5 2 -23 127 -40 278 -16 151 -32 287 -35 303 -2 15
-1 27 3 27 4 -1 27 -28 52 -61 35 -48 81 -86 215 -181 94 -67 176 -125 183
-131 24 -19 11 11 -77 168 -49 88 -88 161 -86 163 2 2 20 -4 40 -13 21 -8 40
-13 43 -11 2 3 -39 59 -93 126 -53 67 -98 127 -101 134 -7 17 -53 42 -94 51
-101 20 -109 24 -116 59 -3 19 -3 48 1 64 6 27 12 31 73 46 79 20 623 199 618
203 -2 2 -34 -1 -72 -7 -38 -6 -87 -14 -108 -16 -22 -3 -43 -7 -47 -10 -4 -2
-60 -15 -125 -29 -146 -31 -200 -48 -286 -91 -38 -18 -68 -32 -68 -31 0 1 -7
52 -15 112 -16 119 -19 225 -7 225 4 0 36 -7 71 -15 35 -9 66 -13 68 -11 3 3
-31 12 -76 22 -87 19 -86 17 -93 104 l-3 35 255 25 c207 21 246 27 209 33 -73
12 -266 27 -354 27 -130 0 -119 -15 -139 183 -9 95 -21 197 -26 227 -27 158
-62 547 -56 623 3 45 7 92 7 105 1 12 5 22 9 22 7 0 138 -138 199 -210 l22
-25 -16 40 c-27 67 -74 133 -141 194 l-64 58 5 54 c10 94 95 853 98 869 5 25
135 -250 181 -384 12 -34 14 -12 5 51 -15 111 -59 217 -141 342 -21 33 -21 34
-3 28 15 -5 13 -1 -7 16 -25 21 -27 26 -21 82 3 33 10 66 15 72 6 7 8 19 5 28
-6 15 15 21 98 28 22 2 7 4 -33 5 l-73 2 5 33 c3 17 22 174 41 347 19 173 42
371 50 440 8 69 15 131 15 138 0 9 21 11 82 8 88 -5 74 2 197 -102 l34 -29
-34 65 c-23 45 -67 98 -138 170 -88 88 -105 111 -108 140 -3 32 58 578 92 820
8 58 15 114 15 125 1 11 10 -2 21 -31 11 -28 36 -68 55 -90 20 -21 79 -89 132
-151 53 -62 97 -111 98 -110 2 1 -20 68 -48 147 -51 146 -87 211 -195 352 -45
59 -55 106 -33 148 6 10 7 21 3 23 -5 3 -62 15 -128 26 -66 12 -128 24 -137
27 -15 4 -18 -1 -18 -25 0 -25 -5 -32 -27 -36 -73 -15 -239 -104 -321 -173
l-27 -22 55 21 c192 74 287 112 298 121 15 13 16 -27 3 -87 -5 -22 -12 -71
-15 -110 -11 -134 -107 -910 -116 -930 -4 -11 -13 -74 -20 -140 -6 -66 -14
-123 -16 -126 -2 -3 -44 -12 -94 -18 -49 -7 -90 -15 -90 -18 0 -3 41 -3 90 0
104 8 97 20 77 -120 l-12 -82 -100 68 -100 68 1 43 1 42 -76 -7 c-42 -4 -105
-10 -141 -14 -60 -6 -65 -8 -64 -29 0 -17 -9 -28 -36 -42 l-37 -19 -7 632 c-5
439 -4 641 3 660 6 16 7 36 3 45 -8 17 31 708 40 718 7 7 97 -235 163 -436 31
-96 58 -179 60 -185 10 -31 3 96 -10 171 -28 160 -108 380 -180 494 -21 34
-25 52 -25 117 0 43 5 107 11 143 6 36 10 72 9 80 -4 38 2 230 9 260 l7 34 23
-37 c13 -21 25 -37 26 -35 2 2 -10 43 -27 92 -16 48 -27 90 -24 93 2 3 32 -11
66 -31 33 -20 64 -36 67 -36 7 0 -83 108 -109 132 -18 16 -19 26 -13 92 l7 75
47 7 c114 16 127 23 38 20 l-87 -2 5 60 c3 34 21 315 40 626 42 683 43 701 58
674 6 -10 10 -46 9 -79 -3 -55 32 -205 44 -193 2 3 -3 25 -11 49 -9 24 -18 73
-21 109 l-5 65 55 -105 c47 -91 68 -118 155 -205 56 -55 101 -96 101 -92 0 4
-21 54 -46 110 -50 110 -86 162 -205 296 -54 61 -78 96 -82 121 -5 33 51 995
72 1240 6 63 13 156 16 205 3 50 8 119 12 155 l6 65 24 -83 c14 -50 36 -99 56
-125 17 -23 88 -122 156 -220 68 -97 126 -176 128 -174 2 3 -26 111 -62 242
-69 254 -70 256 -217 507 l-80 137 8 57 7 56 66 -6 c132 -14 421 -67 591 -110
96 -24 176 -43 177 -42 9 7 -188 100 -263 124 -127 42 -234 55 -411 51 l-153
-4 0 26 0 26 -127 8 c-71 5 -146 9 -168 9 l-40 1 3 -47 c2 -41 0 -47 -20 -54
-54 -16 -136 -84 -243 -202 -109 -121 -196 -230 -165 -206 120 89 372 283 393
302 l27 26 0 -35 c0 -19 -5 -66 -10 -104 -5 -39 -12 -129 -15 -200 -3 -72 -14
-258 -25 -415 -11 -157 -27 -393 -36 -525 -9 -132 -19 -242 -21 -245 -2 -3
-51 -5 -109 -5 l-104 0 -4 -915 c-1 -503 -3 -1025 -4 -1159 l-1 -244 -23 7
c-168 48 -427 102 -412 87 3 -3 98 -49 212 -102 l207 -95 3 -229 2 -229 -55
-81 c-31 -45 -60 -97 -65 -116 -7 -31 -126 -416 -149 -481 -5 -16 -8 -28 -6
-28 2 0 64 81 137 180 92 125 134 175 136 162 5 -35 -88 -1337 -98 -1359 -5
-12 -6 -37 -3 -55 4 -30 -3 -45 -63 -129 -107 -148 -239 -359 -262 -419 l-21
-55 0 129 c-1 109 1 127 13 117 12 -10 12 -6 0 26 -17 50 -19 213 -1 213 6 0
39 -7 72 -14 33 -8 62 -13 64 -11 6 7 -51 27 -99 34 l-45 6 -3 63 c-3 54 -1
62 15 62 18 0 193 -25 248 -36 28 -5 28 -4 -10 18 -58 34 -135 64 -200 79
l-56 12 -1 91 c0 50 -2 795 -4 1656 l-4 1565 -122 3 -123 3 -3 -538 c-2 -296
-7 -1053 -12 -1683 -5 -630 -10 -1426 -10 -1770 -2 -703 4 -674 -75 -350 -26
107 -52 203 -57 213 -5 10 -42 147 -83 305 -66 253 -75 298 -75 376 0 117 13
156 55 157 27 1 26 2 -12 12 l-43 10 0 140 c0 132 1 139 18 125 113 -94 211
-180 226 -197 35 -39 38 -22 4 26 -46 65 -160 185 -208 218 l-40 28 1 681 0
681 45 -95 c58 -122 114 -253 176 -410 l49 -125 -6 63 c-17 173 -120 440 -236
609 l-31 44 3 149 c2 82 0 152 -4 156 -4 4 -7 464 -7 1023 0 857 2 1012 14
996 7 -11 16 -54 19 -95 3 -43 15 -98 28 -128 28 -68 35 -62 8 9 -20 51 -36
160 -22 146 3 -4 29 -47 57 -96 42 -73 66 -102 136 -161 47 -40 98 -85 114
-99 25 -23 22 -13 -30 88 -54 104 -70 125 -186 244 -111 114 -127 135 -132
171 -5 40 -9 2047 -4 2096 l3 25 -167 2 c-121 1 -168 -2 -168 -10z m-22 -2863
c5 -5 6 -278 4 -606 l-4 -597 -31 16 c-17 8 -89 27 -161 42 l-129 26 -63 240
c-34 132 -62 241 -61 242 1 1 40 -32 87 -72 47 -40 86 -72 88 -70 7 7 -191
371 -223 410 -27 33 -41 71 -77 207 -44 164 -44 167 -24 172 38 8 587 0 594
-10z m-40 -1280 c41 -8 45 -15 37 -72 l-6 -47 -107 1 -107 1 89 -6 c105 -7
124 -24 44 -40 -29 -6 -69 -12 -88 -14 -35 -4 -35 -4 5 -5 22 -1 68 5 103 12
34 8 64 10 67 6 3 -4 2 -64 -2 -134 l-6 -126 -52 -85 -52 -85 -27 103 c-16 56
-39 147 -53 202 -14 55 -34 129 -44 164 -11 35 -19 72 -19 81 0 8 -9 33 -20
55 -11 22 -20 49 -20 61 0 21 3 21 112 -22 62 -24 128 -47 146 -50z m31 -901
l-1 -108 -19 74 c-19 72 -20 76 -2 108 10 18 19 33 20 33 2 0 3 -48 2 -107z
m-65 -1330 c17 -93 20 -123 10 -123 -9 0 -114 93 -114 101 0 5 24 6 53 3 l52
-4 -43 19 -42 20 17 36 c30 62 49 47 67 -52z m2728 -155 c-1 -24 5 -54 14 -68
11 -18 14 -19 9 -5 -8 26 -16 85 -11 85 2 0 13 -15 24 -33 11 -19 27 -46 37
-60 l17 -27 -61 0 -61 0 0 33 c0 70 13 138 23 128 6 -6 10 -30 9 -53z m-2872
7 c8 -14 31 -36 52 -47 21 -12 38 -25 38 -29 0 -4 -16 -30 -35 -58 -19 -28
-46 -75 -60 -106 -13 -30 -27 -55 -31 -55 -3 0 -4 55 0 123 3 67 5 139 6 160
0 43 11 47 30 12z m1474 -232 c-6 -134 -86 -1337 -88 -1340 -2 -3 -213 -33
-227 -33 -5 0 -8 203 -8 451 l-1 451 82 101 c66 83 90 123 130 217 48 115 93
209 84 179 -2 -9 0 -31 5 -50 7 -28 8 -23 6 29 -2 37 0 57 5 50 6 -9 8 -7 7 7
-2 30 0 55 6 55 3 0 3 -53 -1 -117z m-1275 -216 l3 -295 -78 -7 c-110 -9 -117
-16 -11 -11 l87 4 0 -64 c0 -35 -2 -64 -4 -64 -2 0 -43 25 -92 55 -48 31 -98
58 -110 61 -28 7 -34 29 -34 123 0 68 3 78 35 127 20 29 39 55 44 58 5 3 35
80 66 171 52 150 59 164 74 151 14 -13 16 -54 20 -309z m1841 140 c0 -16 -8
-41 -18 -55 -26 -38 -34 -52 -29 -52 3 0 14 14 25 31 l19 31 8 -48 c4 -27 17
-145 29 -262 l22 -214 -41 6 -40 6 41 -19 c42 -19 42 -19 48 -88 4 -37 9 -102
11 -143 5 -102 13 -190 32 -350 16 -134 16 -135 -6 -178 -21 -42 -16 -57 10
-25 12 14 15 11 20 -33 3 -27 5 -50 4 -52 -1 -1 -40 -9 -86 -17 -46 -8 -96
-18 -112 -21 l-27 -6 0 746 1 746 36 25 c41 27 53 21 53 -28z m394 -138 c26
-12 50 -28 52 -34 3 -6 -9 -120 -26 -254 -16 -134 -30 -248 -30 -252 0 -11
-11 -11 -28 0 -12 7 -41 225 -56 416 -2 33 -8 96 -11 140 l-8 80 29 -36 c16
-20 51 -47 78 -60z m-2444 -375 c3 -21 13 -50 23 -64 15 -21 19 -23 27 -10 5
8 10 21 10 29 0 10 7 8 24 -8 14 -13 48 -34 77 -47 l52 -24 -8 -483 c-4 -265
-7 -536 -6 -602 l2 -120 -28 55 c-16 32 -61 90 -109 138 l-83 84 -1 396 c0
219 -2 466 -4 550 -2 106 1 151 8 149 6 -2 13 -21 16 -43z m2430 -239 c0 -8
-4 -17 -10 -20 -6 -4 -10 5 -10 20 0 15 4 24 10 20 6 -3 10 -12 10 -20z
m-1794 -567 l34 -133 -33 -27 c-32 -27 -32 -27 -34 -5 -4 43 -8 306 -5 302 2
-2 19 -63 38 -137z m749 -105 c-4 -65 -11 -149 -15 -188 -5 -38 -11 -119 -15
-180 -3 -60 -8 -111 -10 -113 -2 -2 -17 5 -33 17 -41 28 -47 26 -23 -7 23 -33
51 -145 51 -206 0 -34 -8 -54 -41 -100 -22 -31 -45 -54 -50 -51 -13 9 -11 72
5 132 8 29 17 76 21 105 9 71 -10 53 -40 -36 l-22 -65 -12 38 c-16 55 -14 69
15 118 14 25 24 47 21 49 -2 3 -18 -7 -35 -21 -27 -23 -31 -24 -35 -8 -2 10
-4 137 -3 282 l1 265 105 42 c58 24 109 43 114 44 5 0 5 -52 1 -117z m-670
-214 c19 -77 15 -88 -30 -89 -49 -1 -44 -17 10 -35 30 -11 57 -26 60 -35 18
-58 34 -133 30 -140 -3 -5 -1 -17 4 -27 6 -10 24 -72 41 -137 23 -90 30 -141
30 -210 0 -81 -2 -88 -13 -66 -7 14 -46 80 -86 148 -39 67 -69 127 -65 134 5
7 3 8 -6 3 -10 -6 -12 -4 -7 9 4 9 3 15 -2 12 -5 -3 -25 21 -45 55 -27 46 -36
71 -35 102 l2 42 6 -45 c4 -25 20 -67 35 -93 l29 -49 26 33 c14 18 31 40 38
48 10 14 13 14 32 -3 12 -11 21 -15 21 -9 0 9 -54 53 -65 53 -3 0 -3 -6 1 -12
4 -8 3 -10 -2 -5 -5 5 -9 14 -9 20 0 7 -8 11 -18 11 -9 -1 -14 2 -11 7 3 5
-16 19 -41 31 l-46 23 3 142 c3 156 0 148 69 152 25 1 28 -4 44 -70z m1499
-79 l6 -65 -127 5 -128 5 0 64 0 64 115 36 115 37 6 -41 c3 -22 9 -69 13 -105z
m-2103 -53 l89 -118 0 -99 0 -100 -47 -72 c-25 -40 -72 -119 -103 -175 -31
-57 -60 -100 -63 -96 -4 3 -7 189 -7 411 l0 405 21 -19 c12 -10 61 -72 110
-137z m629 23 c0 -11 -2 -20 -4 -20 -2 0 -6 9 -9 20 -3 11 -1 20 4 20 5 0 9
-9 9 -20z m-35 0 c3 -6 -1 -7 -9 -4 -18 7 -21 14 -7 14 6 0 13 -4 16 -10z
m1365 -70 c36 -5 84 -10 108 -10 41 0 51 -11 34 -36 -4 -6 -37 -12 -73 -13
-36 -1 -83 -6 -105 -11 -61 -15 -64 -13 -64 26 l0 37 43 -6 c28 -4 36 -3 22 3
-11 5 -32 9 -47 9 -16 1 -28 6 -28 11 0 6 10 8 23 5 12 -3 51 -9 87 -15z m122
-148 c-26 -23 -30 -30 -13 -22 18 10 25 9 31 -1 6 -8 10 -5 13 12 3 18 5 14 6
-12 1 -47 -5 -51 -48 -30 -20 9 -75 31 -123 47 -51 16 -88 34 -88 42 0 9 10
11 33 8 17 -3 59 -8 92 -11 33 -4 71 -8 85 -11 22 -4 23 -3 5 5 -11 5 -33 10
-50 11 -23 2 -16 5 25 13 47 10 56 10 62 -3 4 -10 -6 -26 -30 -48z m-82 -54
c41 -12 78 -24 82 -28 5 -3 -5 -21 -22 -40 -16 -19 -29 -44 -30 -54 0 -11 -37
-55 -85 -101 -85 -81 -97 -84 -79 -19 6 24 54 52 54 32 0 -6 2 -9 5 -6 9 9
-13 52 -44 87 -28 30 -31 40 -31 98 l0 65 38 -6 c20 -4 71 -16 112 -28z
m-1915 -1095 c-7 -198 -9 -213 -26 -213 -15 0 -102 -29 -161 -55 -17 -7 -18
14 -18 348 l0 354 30 74 c17 41 63 146 103 234 l72 160 3 -345 c2 -190 0 -441
-3 -557z m2038 840 c-2 -32 -9 -89 -14 -128 -32 -227 -48 -365 -49 -402 0 -66
-6 -73 -60 -73 -54 0 -50 -7 -70 121 l-12 75 71 132 c39 72 71 135 71 139 -1
5 -11 21 -25 37 l-23 29 56 64 c31 34 57 63 58 63 0 0 -1 -26 -3 -57z m-914
-102 c-4 -51 -10 -95 -12 -97 -2 -3 -10 22 -17 54 -11 54 -10 62 10 101 12 24
23 41 24 39 2 -1 -1 -45 -5 -97z m741 -24 c0 -1 -10 -44 -23 -94 l-23 -92 -22
45 c-30 61 -28 77 16 113 32 26 52 37 52 28z m96 -524 c-3 -16 -8 -57 -11 -93
-7 -70 -22 -130 -34 -130 -8 0 -49 239 -42 245 2 3 24 5 48 5 43 0 44 -1 39
-27z m-140 -280 l39 -72 -24 -48 -23 -48 31 29 c30 29 31 29 46 10 12 -14 14
-34 10 -79 -11 -110 -14 -117 -70 -162 -30 -24 -55 -43 -57 -43 -2 0 -5 114
-6 253 -3 161 -1 248 6 242 5 -5 27 -42 48 -82z m-1826 -238 l0 -45 -47 -1
c-27 -1 -59 -4 -73 -8 -23 -7 -21 -8 15 -14 22 -4 54 -6 70 -5 26 1 25 2 -10
8 l-40 7 43 2 42 1 0 -87 c0 -49 -3 -112 -6 -141 l-7 -52 -91 87 c-50 49 -93
96 -94 107 -2 11 0 16 7 11 6 -3 9 -10 7 -14 -3 -4 10 -23 29 -41 25 -24 35
-29 35 -18 0 9 6 19 13 21 9 4 8 8 -3 17 -12 9 -10 10 10 4 14 -3 38 -13 53
-21 16 -8 31 -12 34 -10 6 6 -63 37 -135 61 l-53 18 3 68 2 68 80 9 c45 6 89
11 99 12 14 1 17 -7 17 -44z m999 -82 c42 -161 43 -167 33 -223 -6 -30 -11
-82 -11 -115 -1 -61 -29 -503 -35 -540 -2 -11 -4 186 -4 438 -1 252 -4 463 -7
468 -4 5 -2 9 4 9 6 0 15 -17 20 -37z m841 -424 c-22 -184 -45 -359 -49 -389
-5 -35 -9 66 -9 284 l-1 340 46 53 c25 30 47 52 50 50 2 -3 -14 -155 -37 -338z
m384 106 c3 -27 10 -93 16 -145 l10 -94 -46 -46 -46 -45 5 30 c3 17 13 105 23
198 18 167 28 195 38 102z"/>
<path d="M2000 8308 c-33 -33 -60 -66 -60 -71 0 -6 1 -8 3 -6 2 2 32 34 67 72
35 37 60 67 57 67 -4 0 -34 -28 -67 -62z"/>
<path d="M3298 5833 c-9 -32 -15 -59 -13 -61 5 -5 37 97 33 108 -2 5 -11 -16
-20 -47z"/>
<path d="M3271 5744 c0 -11 3 -14 6 -6 3 7 2 16 -1 19 -3 4 -6 -2 -5 -13z"/>
<path d="M3151 5684 c0 -11 3 -14 6 -6 3 7 2 16 -1 19 -3 4 -6 -2 -5 -13z"/>
<path d="M3071 5144 c0 -11 3 -14 6 -6 3 7 2 16 -1 19 -3 4 -6 -2 -5 -13z"/>
<path d="M2030 6108 c0 -7 5 -20 10 -28 8 -12 10 -11 10 7 0 12 -4 25 -10 28
-5 3 -10 0 -10 -7z"/>
<path d="M2041 6044 c0 -11 3 -14 6 -6 3 7 2 16 -1 19 -3 4 -6 -2 -5 -13z"/>
<path d="M2036 5919 c-4 -23 -5 -44 -2 -46 2 -2 7 14 11 37 4 23 5 43 2 46 -2
3 -7 -14 -11 -37z"/>
<path d="M2011 5814 c0 -11 3 -14 6 -6 3 7 2 16 -1 19 -3 4 -6 -2 -5 -13z"/>
<path d="M1901 5764 c0 -11 3 -14 6 -6 3 7 2 16 -1 19 -3 4 -6 -2 -5 -13z"/>
<path d="M1991 5734 c0 -11 3 -14 6 -6 3 7 2 16 -1 19 -3 4 -6 -2 -5 -13z"/>
<path d="M1891 5704 c0 -11 3 -14 6 -6 3 7 2 16 -1 19 -3 4 -6 -2 -5 -13z"/>
<path d="M3886 5833 c-6 -14 -5 -15 5 -6 7 7 10 15 7 18 -3 3 -9 -2 -12 -12z"/>
<path d="M3868 5173 c6 -2 18 -2 25 0 6 3 1 5 -13 5 -14 0 -19 -2 -12 -5z"/>
<path d="M1852 5200 c0 -14 2 -19 5 -12 2 6 2 18 0 25 -3 6 -5 1 -5 -13z"/>
<path d="M3078 4213 c7 -3 16 -2 19 1 4 3 -2 6 -13 5 -11 0 -14 -3 -6 -6z"/>
<path d="M3048 4123 c7 -3 16 -2 19 1 4 3 -2 6 -13 5 -11 0 -14 -3 -6 -6z"/>
<path d="M3098 4113 c7 -3 16 -2 19 1 4 3 -2 6 -13 5 -11 0 -14 -3 -6 -6z"/>
<path d="M2651 3924 c0 -11 3 -14 6 -6 3 7 2 16 -1 19 -3 4 -6 -2 -5 -13z"/>
<path d="M3842 4095 c0 -16 2 -22 5 -12 2 9 2 23 0 30 -3 6 -5 -1 -5 -18z"/>
<path d="M3954 3908 l-19 -23 23 19 c21 18 27 26 19 26 -2 0 -12 -10 -23 -22z"/>
<path d="M3889 3853 l-34 -38 38 34 c20 19 37 36 37 38 0 8 -8 0 -41 -34z"/>
<path d="M4062 3641 c-6 -17 -9 -31 -6 -31 7 0 25 52 20 57 -2 2 -8 -10 -14
-26z"/>
<path d="M3915 3270 c10 -11 20 -20 23 -20 3 0 -3 9 -13 20 -10 11 -20 20 -23
20 -3 0 3 -9 13 -20z"/>
<path d="M3746 12250 c-15 -27 -25 -50 -22 -50 6 0 57 92 53 97 -2 2 -16 -19
-31 -47z"/>
<path d="M3756 12165 c-9 -26 -7 -32 5 -12 6 10 9 21 6 23 -2 3 -7 -2 -11 -11z"/>
<path d="M3696 12155 c-9 -26 -7 -32 5 -12 6 10 9 21 6 23 -2 3 -7 -2 -11 -11z"/>
<path d="M2621 10645 c-35 -8 -68 -16 -73 -17 -5 -2 92 -3 216 -3 123 0 223 2
221 4 -2 2 -30 10 -62 17 -73 17 -219 17 -302 -1z"/>
<path d="M4185 10530 c-33 -6 -64 -11 -70 -13 -5 -2 69 -7 165 -11 96 -4 199
-11 228 -15 69 -10 54 3 -27 24 -80 20 -216 27 -296 15z"/>
<path d="M2490 10485 c0 -8 4 -15 10 -15 5 0 7 7 4 15 -4 8 -8 15 -10 15 -2 0
-4 -7 -4 -15z"/>
<path d="M1055 9877 c-33 -18 -77 -45 -98 -61 -47 -36 -196 -242 -272 -376
-14 -25 317 301 355 350 72 91 92 120 84 120 -5 0 -36 -15 -69 -33z"/>
<path d="M1119 9750 c-101 -153 -158 -331 -193 -600 -7 -58 -12 -106 -10 -108
1 -2 30 83 65 190 34 106 84 247 110 313 79 196 93 304 28 205z"/>
<path d="M3198 8453 c12 -2 30 -2 40 0 9 3 -1 5 -23 4 -22 0 -30 -2 -17 -4z"/>
<path d="M3398 8453 c43 -3 52 -7 52 -23 0 -15 -9 -20 -47 -23 l-48 -3 53 -2
c52 -2 52 -2 52 28 l0 30 -57 -2 -58 -2 53 -3z"/>
<path d="M3128 8443 c7 -3 16 -2 19 1 4 3 -2 6 -13 5 -11 0 -14 -3 -6 -6z"/>
<path d="M1388 8393 c7 -3 16 -2 19 1 4 3 -2 6 -13 5 -11 0 -14 -3 -6 -6z"/>
<path d="M3163 8393 c9 -2 23 -2 30 0 6 3 -1 5 -18 5 -16 0 -22 -2 -12 -5z"/>
<path d="M3298 8393 c6 -2 18 -2 25 0 6 3 1 5 -13 5 -14 0 -19 -2 -12 -5z"/>
<path d="M3430 8247 c-14 -12 -45 -44 -70 -72 -36 -41 -33 -39 22 14 l66 64 5
-29 c3 -25 4 -24 6 9 0 20 0 37 -1 37 -2 0 -14 -11 -28 -23z"/>
<path d="M3279 8083 l-34 -38 38 34 c20 19 37 36 37 38 0 8 -8 0 -41 -34z"/>
<path d="M3204 7998 l-19 -23 23 19 c21 18 27 26 19 26 -2 0 -12 -10 -23 -22z"/>
<path d="M3309 7893 c-13 -16 -12 -17 4 -4 9 7 17 15 17 17 0 8 -8 3 -21 -13z"/>
<path d="M5095 7515 c194 -49 358 -97 429 -124 49 -19 41 -4 -12 23 -139 70
-291 116 -465 141 -180 26 -167 15 48 -40z"/>
<path d="M4514 7378 l-29 -33 33 29 c17 17 32 31 32 33 0 8 -8 1 -36 -29z"/>
<path d="M4519 7323 c-13 -16 -12 -17 4 -4 9 7 17 15 17 17 0 8 -8 3 -21 -13z"/>
<path d="M4479 7273 c-13 -16 -12 -17 4 -4 16 13 21 21 13 21 -2 0 -10 -8 -17
-17z"/>
<path d="M4366 7133 c-6 -14 -5 -15 5 -6 7 7 10 15 7 18 -3 3 -9 -2 -12 -12z"/>
<path d="M4820 6317 c0 -3 39 -10 88 -17 48 -6 127 -20 176 -31 91 -19 124
-19 64 0 -91 29 -328 64 -328 48z"/>
<path d="M1494 6288 l-19 -23 23 19 c21 18 27 26 19 26 -2 0 -12 -10 -23 -22z"/>
<path d="M1223 4473 c9 -2 23 -2 30 0 6 3 -1 5 -18 5 -16 0 -22 -2 -12 -5z"/>
<path d="M1048 4463 c6 -2 18 -2 25 0 6 3 1 5 -13 5 -14 0 -19 -2 -12 -5z"/>
<path d="M993 4453 c9 -2 23 -2 30 0 6 3 -1 5 -18 5 -16 0 -22 -2 -12 -5z"/>
<path d="M1375 4344 l-30 -26 33 22 c17 12 32 23 32 26 0 7 -4 5 -35 -22z"/>
<path d="M1035 3516 c-46 -12 -32 -13 180 -17 127 -2 231 -4 233 -3 2 1 -18 7
-45 14 -72 18 -308 22 -368 6z"/>
<path d="M1475 3243 c-29 -69 -29 -74 0 -20 14 27 25 53 23 58 -2 5 -12 -12
-23 -38z"/>
<path d="M4748 2493 c7 -3 16 -2 19 1 4 3 -2 6 -13 5 -11 0 -14 -3 -6 -6z"/>
<path d="M4598 2478 c5 -5 16 -8 23 -6 8 3 3 7 -10 11 -17 4 -21 3 -13 -5z"/>
<path d="M4648 2463 c6 -2 18 -2 25 0 6 3 1 5 -13 5 -14 0 -19 -2 -12 -5z"/>
<path d="M4698 2453 c7 -3 16 -2 19 1 4 3 -2 6 -13 5 -11 0 -14 -3 -6 -6z"/>
<path d="M4738 2443 c6 -2 18 -2 25 0 6 3 1 5 -13 5 -14 0 -19 -2 -12 -5z"/>
<path d="M5088 2133 c12 -2 30 -2 40 0 9 3 -1 5 -23 4 -22 0 -30 -2 -17 -4z"/>
<path d="M4900 2124 c-14 -2 -63 -9 -110 -14 -47 -6 -101 -14 -120 -17 l-35
-6 30 -6 c17 -4 104 -4 195 -1 l165 6 -130 3 c-117 3 -124 4 -76 12 30 5 91
13 135 18 68 7 72 8 26 8 -30 0 -66 -1 -80 -3z"/>
<path d="M5338 2123 c6 -2 18 -2 25 0 6 3 1 5 -13 5 -14 0 -19 -2 -12 -5z"/>
<path d="M5533 2103 c9 -2 25 -2 35 0 9 3 1 5 -18 5 -19 0 -27 -2 -17 -5z"/>
<path d="M5083 2093 c26 -2 67 -2 90 0 23 2 2 3 -48 3 -49 0 -68 -1 -42 -3z"/>
<path d="M4840 1955 c0 -2 23 -16 50 -30 62 -31 65 -26 6 9 -44 26 -56 30 -56
21z"/>
<path d="M4950 1896 c0 -3 9 -10 20 -16 11 -6 20 -8 20 -6 0 3 -9 10 -20 16
-11 6 -20 8 -20 6z"/>
<path d="M5000 1866 c0 -3 9 -10 20 -16 11 -6 20 -8 20 -6 0 3 -9 10 -20 16
-11 6 -20 8 -20 6z"/>
</g>
</svg>
